<svg id="Layer_1" enable-background="new 0 0 256 256" height="512" viewBox="0 0 256 256" width="512" xmlns="http://www.w3.org/2000/svg"><circle cx="128" cy="128" fill="#d6df58" r="38.255"/><path d="m128 88.245c-21.921 0-39.755 17.834-39.755 39.755 0 21.922 17.834 39.756 39.755 39.756s39.755-17.834 39.755-39.756c0-21.921-17.834-39.755-39.755-39.755zm0 76.511c-20.267 0-36.755-16.488-36.755-36.756 0-20.267 16.488-36.755 36.755-36.755s36.755 16.488 36.755 36.755c0 20.268-16.488 36.756-36.755 36.756z" fill="#3a312a"/><path d="m132.548 123.674c-5.572-2.097-7.866-3.473-7.866-5.637 0-1.834 1.377-3.67 5.637-3.67 4.719 0 7.734 1.507 9.438 2.229l1.901-7.406c-2.163-1.049-5.113-1.968-9.504-2.163v-5.769h-6.424v6.227c-7.013 1.376-11.077 5.899-11.077 11.668 0 6.358 4.785 9.636 11.798 11.995 4.851 1.639 6.948 3.212 6.948 5.702 0 2.623-2.557 4.064-6.292 4.064-4.261 0-8.128-1.376-10.881-2.883l-1.966 7.668c2.491 1.442 6.751 2.622 11.142 2.819v6.227h6.424v-6.686c7.538-1.31 11.668-6.292 11.668-12.126.001-5.901-3.146-9.506-10.946-12.259z" fill="#87796f"/><path d="m133.077 122.27c-4.961-1.867-6.895-3.054-6.895-4.233 0-1.889 2.592-2.17 4.138-2.17 3.994 0 6.623 1.143 8.363 1.898l.49.211c.402.17.859.157 1.25-.037.392-.193.679-.548.788-.971l1.901-7.406c.177-.691-.157-1.412-.799-1.723-2.495-1.21-5.339-1.94-8.659-2.22v-4.362c0-.829-.671-1.5-1.5-1.5h-6.424c-.829 0-1.5.671-1.5 1.5v5.029c-6.867 1.766-11.077 6.608-11.077 12.865 0 8.07 6.851 11.409 12.818 13.416 5.21 1.761 5.928 3.098 5.928 4.281 0 2.44-3.992 2.564-4.792 2.564-4.552 0-8.32-1.691-10.16-2.699-.407-.223-.893-.244-1.318-.061-.425.185-.741.555-.856 1.004l-1.966 7.669c-.167.65.12 1.334.702 1.67 2.564 1.484 6.447 2.564 10.394 2.922v4.825c0 .828.671 1.5 1.5 1.5h6.424c.829 0 1.5-.672 1.5-1.5v-5.463c7.131-1.688 11.668-6.819 11.668-13.349 0-6.626-3.573-10.715-11.918-13.66zm-1.507 24.309c-.719.125-1.243.748-1.243 1.478v5.187h-3.424v-4.727c0-.802-.631-1.463-1.433-1.498-3.417-.154-6.983-.959-9.46-2.104l1.209-4.718c2.338 1.056 5.832 2.216 9.888 2.216 4.734 0 7.792-2.185 7.792-5.564 0-3.895-3.83-5.726-7.97-7.124-7.554-2.541-10.776-5.703-10.776-10.573 0-5.172 3.688-8.983 9.866-10.196.704-.138 1.211-.754 1.211-1.472v-4.727h3.424v4.269c0 .803.632 1.463 1.433 1.499 3.012.134 5.578.634 7.802 1.522l-1.151 4.484c-1.89-.766-4.645-1.664-8.419-1.664-5.263 0-7.138 2.671-7.138 5.17 0 3.441 3.831 5.156 8.867 7.051 8.254 2.914 9.945 6.442 9.945 10.843.002 5.451-3.993 9.531-10.423 10.648z" fill="#3a312a"/><path d="m232.084 155.531c-1.67-.08-3.37.28-4.93 1.09l-33.56 17.48h-53.14c-11.58 0-22.92 3.27-32.72 9.44l-7.48 4.7c-2.86 1.8-6.18 2.76-9.57 2.76h-.95v7.87c.006 0 .01-.001.016-.001v14.722c-.006 0-.01-.001-.016-.001v9.02l71.25-2.19c6.11-.4 11.99-2.45 17.02-5.95l59.22-45.53c1.94-1.35 2.57-3.24 2.62-5.06.11-4.35-3.41-8.16-7.76-8.35z" fill="#fce8cb"/><path d="m232.155 154.033c-1.957-.097-3.927.34-5.694 1.258l-33.234 17.311h-52.773c-11.88 0-23.471 3.344-33.518 9.669l-7.481 4.701c-2.629 1.654-5.662 2.529-8.771 2.529h-.95c-.829 0-1.5.672-1.5 1.5v7.87c.001.858.686 1.562 1.596 1.497.792-.042 1.42-.696 1.42-1.498 0-.075-.005-.148-.016-.221v-6.156c3.482-.098 6.865-1.124 9.817-2.981l7.482-4.701c9.569-6.024 20.607-9.209 31.921-9.209h53.14c.241 0 .479-.059.693-.17l33.558-17.479c1.295-.672 2.731-.999 4.173-.922 3.519.153 6.416 3.273 6.326 6.81-.047 1.711-.693 2.977-2.034 3.912l-59.163 45.488c-4.794 3.337-10.417 5.302-16.209 5.682l-69.704 2.143v-7.252c.011-.072.016-.146.016-.221 0-.802-.629-1.457-1.421-1.498-.032-.002-.065-.003-.095-.003-.829 0-1.5.672-1.5 1.5v9.021c0 .406.165.794.456 1.077.28.271.655.423 1.044.423.015 0 .031 0 .046-.001l71.302-2.192c6.389-.418 12.537-2.567 17.837-6.257l59.163-45.489c2.061-1.435 3.189-3.597 3.262-6.253.13-5.137-4.081-9.664-9.189-9.888z" fill="#3a312a"/><path d="m195.092 174.879c-.314-.767-1.19-1.131-1.956-.818-.767.314-1.133 1.19-.819 1.957 1.16 2.828-.496 6.243-2.731 8.155-2.609 2.231-6.238 3.314-9.44 4.27-7.229 2.157-13.784 3.487-20.723 4.895-6.705 1.359-13.638 2.766-22.193 5.072-.8.216-1.273 1.039-1.058 1.839.18.669.786 1.109 1.447 1.109.129 0 .261-.017.392-.052 8.462-2.282 15.349-3.679 22.008-5.029 7.008-1.421 13.627-2.764 20.985-4.959 3.487-1.041 7.439-2.22 10.532-4.865 2.96-2.532 5.336-7.234 3.556-11.574z" fill="#3a312a"/><path d="m16.154 175.083h47.25v64.397h-47.25z" fill="#f16c7a"/><path d="m63.404 173.582h-18.558c-.829 0-1.5.672-1.5 1.5s.671 1.5 1.5 1.5h17.058v61.397h-44.25v-61.397h13c.829 0 1.5-.672 1.5-1.5s-.671-1.5-1.5-1.5h-14.5c-.829 0-1.5.672-1.5 1.5v64.397c0 .828.671 1.5 1.5 1.5h47.25c.829 0 1.5-.672 1.5-1.5v-64.397c0-.828-.672-1.5-1.5-1.5z" fill="#3a312a"/><path d="m81.746 175.083h-18.342v64.397h18.342c4.413 0 7.991-3.578 7.991-7.991v-48.415c0-4.414-3.578-7.991-7.991-7.991z" fill="#8ac6dd"/><path d="m89.737 200.371c.829 0 1.5-.672 1.5-1.5v-15.798c0-5.233-4.258-9.491-9.491-9.491h-18.342c-.829 0-1.5.672-1.5 1.5v64.397c0 .828.671 1.5 1.5 1.5h18.342c5.233 0 9.491-4.258 9.491-9.491v-17.896c0-.828-.671-1.5-1.5-1.5s-1.5.672-1.5 1.5v17.896c0 3.579-2.912 6.491-6.491 6.491h-16.842v-61.397h16.842c3.579 0 6.491 2.912 6.491 6.491v15.798c0 .828.672 1.5 1.5 1.5z" fill="#3a312a"/><path d="m76.57 220.096c-3.329 0-6.028 2.699-6.028 6.028s2.699 6.028 6.028 6.028 6.028-2.699 6.028-6.028-2.699-6.028-6.028-6.028z" fill="#87796f"/><path d="m76.57 218.597c-4.151 0-7.528 3.377-7.528 7.527s3.377 7.527 7.528 7.527 7.528-3.377 7.528-7.527-3.377-7.527-7.528-7.527zm0 12.054c-2.497 0-4.528-2.031-4.528-4.527s2.031-4.527 4.528-4.527 4.528 2.031 4.528 4.527-2.031 4.527-4.528 4.527z" fill="#3a312a"/><path d="m232.024 157.031c-1.45-.07-2.9.25-4.18.92l-4.22 2.2c.69 1.08 1.08 2.35 1.05 3.69-.04 1.71-.69 2.98-2.03 3.91l-59.17 45.49c-7.07 4.959-16.561 5.97-16.545 6.11l14.015-.43c5.78-.37 11.4-2.34 16.2-5.68l59.17-45.49c1.34-.93 1.98-2.2 2.03-3.91.09-3.54-2.8-6.66-6.32-6.81z" fill="#decaad"/><path d="m166.266 42.409v-9.02l-71.25 2.19c-6.11.4-11.99 2.45-17.02 5.95l-59.22 45.53c-1.94 1.35-2.57 3.24-2.62 5.06-.11 4.35 3.41 8.16 7.76 8.35 1.67.08 3.37-.28 4.93-1.09l33.56-17.48h53.14c11.58 0 22.92-3.27 32.72-9.44l7.48-4.7c2.86-1.8 6.18-2.76 9.57-2.76h.95v-7.87c-.006 0-.01.001-.016.001v-14.722c.006 0 .011.001.016.001z" fill="#fce8cb"/><path d="m164.75 42.408c0 .801.628 1.456 1.419 1.498.913.058 1.597-.638 1.597-1.497v-9.02c0-.406-.164-.794-.456-1.077s-.698-.441-1.09-.423l-71.302 2.193c-6.389.418-12.536 2.568-17.836 6.258l-59.163 45.488c-2.061 1.436-3.189 3.597-3.262 6.253-.13 5.136 4.08 9.664 9.188 9.886.175.009.35.013.524.013 1.785 0 3.562-.435 5.17-1.27l33.234-17.311h52.772c11.88 0 23.471-3.344 33.518-9.67l7.481-4.701c2.63-1.655 5.663-2.53 8.771-2.53h.95c.829 0 1.5-.671 1.5-1.5v-7.87c0-.858-.674-1.544-1.596-1.497-.792.042-1.42.696-1.42 1.498 0 .075.005.148.016.221v6.156c-3.481.098-6.865 1.124-9.817 2.982l-7.482 4.701c-9.569 6.025-20.607 9.209-31.921 9.209h-53.14c-.241 0-.479.058-.693.169l-33.557 17.481c-1.294.672-2.737.992-4.173.922-3.519-.154-6.416-3.274-6.326-6.811.047-1.71.693-2.976 2.034-3.912l59.163-45.487c4.794-3.336 10.417-5.302 16.209-5.682l69.704-2.143v7.251c-.011.073-.016.147-.016.222z" fill="#3a312a"/><path d="m119.828 55.752c-.215-.8-1.039-1.274-1.839-1.058-8.462 2.281-15.347 3.678-22.006 5.028-7.008 1.421-13.628 2.764-20.987 4.96-3.487 1.041-7.44 2.22-10.532 4.865-2.96 2.532-5.336 7.233-3.556 11.573.238.581.798.932 1.388.932.189 0 .382-.036.568-.113.767-.314 1.133-1.19.819-1.957-1.16-2.829.496-6.244 2.731-8.155 2.61-2.232 6.238-3.315 9.44-4.27 7.23-2.158 13.785-3.487 20.725-4.895 6.705-1.36 13.637-2.766 22.191-5.072.8-.215 1.274-1.038 1.058-1.838z" fill="#3a312a"/><path d="m192.596 16.52h47.25v64.397h-47.25z" fill="#f16c7a"/><path d="m239.846 15.021h-47.25c-.829 0-1.5.671-1.5 1.5v64.397c0 .829.671 1.5 1.5 1.5h18.558c.829 0 1.5-.671 1.5-1.5s-.671-1.5-1.5-1.5h-17.058v-61.397h44.25v61.397h-13c-.829 0-1.5.671-1.5 1.5s.671 1.5 1.5 1.5h14.5c.829 0 1.5-.671 1.5-1.5v-64.397c0-.829-.671-1.5-1.5-1.5z" fill="#3a312a"/><path d="m174.254 16.52c-4.413 0-7.991 3.578-7.991 7.991v48.415c0 4.413 3.578 7.991 7.991 7.991h18.342v-64.397z" fill="#8ac6dd"/><path d="m192.596 15.021h-18.342c-5.233 0-9.491 4.257-9.491 9.491v17.897c0 .829.671 1.5 1.5 1.5s1.5-.671 1.5-1.5v-17.898c0-3.579 2.912-6.491 6.491-6.491h16.842v61.397h-16.842c-3.579 0-6.491-2.912-6.491-6.491v-15.797c0-.829-.671-1.5-1.5-1.5s-1.5.671-1.5 1.5v15.798c0 5.233 4.258 9.491 9.491 9.491h18.342c.829 0 1.5-.671 1.5-1.5v-64.397c0-.829-.671-1.5-1.5-1.5z" fill="#3a312a"/><path d="m179.43 23.848c-3.329 0-6.028 2.699-6.028 6.028s2.699 6.028 6.028 6.028 6.028-2.699 6.028-6.028c-.001-3.329-2.699-6.028-6.028-6.028z" fill="#87796f"/><path d="m179.43 22.348c-4.151 0-7.528 3.377-7.528 7.528s3.377 7.528 7.528 7.528 7.528-3.377 7.528-7.528-3.377-7.528-7.528-7.528zm0 12.056c-2.497 0-4.528-2.031-4.528-4.528s2.031-4.528 4.528-4.528 4.528 2.031 4.528 4.528-2.032 4.528-4.528 4.528z" fill="#3a312a"/><path d="m47.066 120.244c-.974 11.564-13.024 13.389-13.024 13.389 10.347.487 12.925 14.059 12.925 14.059.221-9.677 13.321-14.202 13.321-14.202-9.814-.586-13.222-13.246-13.222-13.246z" fill="#d6df58"/><path d="m60.377 131.994c-8.605-.516-11.833-12.025-11.864-12.141-.191-.703-.865-1.169-1.584-1.102-.725.066-1.298.642-1.359 1.367-.86 10.215-11.313 11.963-11.754 12.032-.763.116-1.313.791-1.273 1.561.04.771.657 1.385 1.427 1.421 9.028.426 11.499 12.719 11.523 12.844.137.711.759 1.217 1.472 1.217.042 0 .084-.002.126-.005.764-.064 1.357-.693 1.375-1.46.195-8.509 12.192-12.777 12.313-12.819.675-.234 1.092-.914.994-1.622-.098-.709-.682-1.25-1.396-1.293zm-13.566 10.346c-1.356-3.131-3.709-6.908-7.587-8.877 2.931-1.404 6.409-3.913 8.202-8.273 1.551 3.071 4.2 6.88 8.334 8.722-3.007 1.641-6.923 4.406-8.949 8.428z" fill="#3a312a"/><path d="m25.367 137.225c-.689 8.179-9.212 9.47-9.212 9.47 7.318.344 9.142 9.944 9.142 9.944.156-6.844 9.422-10.045 9.422-10.045-6.941-.415-9.352-9.369-9.352-9.369z" fill="#d6df58"/><path d="m34.809 145.098c-5.766-.346-7.972-8.187-7.994-8.266-.19-.702-.855-1.164-1.582-1.102-.726.065-1.299.643-1.36 1.368-.579 6.871-7.646 8.066-7.942 8.113-.763.116-1.313.791-1.273 1.561.04.771.657 1.385 1.427 1.421 6.035.284 7.724 8.645 7.739 8.727.135.713.759 1.22 1.473 1.22.041 0 .083-.002.125-.005.765-.063 1.358-.693 1.376-1.461.13-5.709 8.331-8.633 8.412-8.661.676-.233 1.094-.913.996-1.622-.099-.709-.683-1.25-1.397-1.293zm-9.585 6.794c-.924-1.885-2.34-3.947-4.447-5.279 1.855-1.041 3.697-2.63 4.871-4.917 1.057 1.874 2.654 3.955 4.941 5.225-1.85 1.1-3.989 2.738-5.365 4.971z" fill="#3a312a"/><path d="m25.329 110.567c-.657 8.182-9.175 9.507-9.175 9.507 7.319.316 9.181 9.909 9.181 9.909.129-6.845 9.383-10.083 9.383-10.083-6.943-.388-9.389-9.333-9.389-9.333z" fill="#d6df58"/><path d="m34.801 118.403c-5.767-.323-8.004-8.154-8.026-8.233-.193-.702-.867-1.164-1.586-1.096-.726.068-1.297.647-1.355 1.374-.552 6.873-7.615 8.097-7.911 8.145-.762.119-1.31.796-1.267 1.566s.663 1.382 1.433 1.415c6.036.261 7.756 8.614 7.772 8.696.138.71.76 1.214 1.471 1.214.044 0 .087-.002.131-.006.765-.066 1.356-.698 1.37-1.466.108-5.709 8.298-8.666 8.378-8.694.676-.236 1.09-.917.99-1.626-.098-.71-.685-1.249-1.4-1.289zm-9.558 6.832c-.931-1.882-2.356-3.938-4.468-5.262 1.852-1.048 3.687-2.645 4.852-4.936 1.064 1.87 2.67 3.944 4.961 5.205-1.845 1.108-3.978 2.756-5.345 4.993z" fill="#3a312a"/></svg>